<svg id="SvgjsSvg1001" width="288" height="288" xmlns="http://www.w3.org/2000/svg" version="1.1" xmlns:xlink="http://www.w3.org/1999/xlink" xmlns:svgjs="http://svgjs.com/svgjs"><defs id="SvgjsDefs1002"></defs><g id="SvgjsG1008" transform="matrix(1,0,0,1,0,0)"><svg xmlns="http://www.w3.org/2000/svg" width="288" height="288" version="1.0" viewBox="0 0 512 512"><g transform="matrix(.1 0 0 -.1 0 512)" fill="#ffffff" class="color000 svgShape"><path d="M502 4465 c-188 -41 -361 -183 -444 -364 -61 -132 -59 -73 -56 -1574l3 -1372 27 -73 c38 -105 83 -176 158 -252 76 -75 147 -120 252 -158 l73 -27
1238 -3 1237 -2 0 80 0 80 -53 0 c-86 0 -166 19 -257 61 -70 33 -98 54 -167
124 l-82 85 -934 2 -933 3 -37 25 c-21 14 -50 43 -65 64 l-27 39 -3 254 -3
253 595 0 c388 0 613 4 648 11 94 19 213 85 288 159 74 75 140 194 159 288 15
71 15 713 0 784 -19 94 -85 213 -159 288 -75 74 -194 140 -288 159 -35 7 -260
11 -648 11 l-595 0 3 253 c3 252 3 254 28 290 14 21 43 50 64 65 l39 27 1997
0 1996 0 37 -25 c21 -14 50 -43 65 -64 l27 -39 3 -716 2 -717 215 -214 215
-215 -2 955 -3 955 -27 73 c-60 167 -173 297 -319 370 -152 77 6 72 -2214 71
-1641 0 -2001 -3 -2053 -14z m924 -1506 c111 -42 190 -115 239 -222 118 -257
-42 -552 -324 -598 -225 -36 -444 127 -482 360 -28 176 73 366 236 442 110 52
223 58 331 18z" fill="#ffffff" class="color000 svgShape"></path><path d="M3890 2549 c-14 -5 -267 -251 -563 -547 -582 -581 -570 -567 -547
-651 5 -21 19 -50 31 -65 42 -54 56 -56 338 -56 l260 0 3 -513 c3 -468 5 -515
21 -552 23 -50 80 -110 132 -138 39 -21 50 -22 380 -22 l340 0 50 26 c59 31
119 104 134 165 7 28 11 218 11 538 l0 496 264 0 c256 0 264 1 296 22 75 51
99 132 62 204 -25 48 -1043 1065 -1089 1088 -36 18 -85 20 -123 5z" fill="#ffffff" class="color000 svgShape"></path></g></svg></g></svg>